<?xml version="1.0" encoding="UTF-8" standalone="no"?>
<svg
   width="21"
   height="21"
   viewBox="0 0 21 21"
   fill="currentColor"
   version="1.1"
   id="svg4"
   sodipodi:docname="icon.svg"
   inkscape:version="1.1.1 (3bf5ae0, 2021-09-20)"
   xmlns:inkscape="http://www.inkscape.org/namespaces/inkscape"
   xmlns:sodipodi="http://sodipodi.sourceforge.net/DTD/sodipodi-0.dtd"
   xmlns="http://www.w3.org/2000/svg"
   xmlns:svg="http://www.w3.org/2000/svg">
  <defs
     id="defs8" />
  <sodipodi:namedview
     id="namedview6"
     pagecolor="#ffffff"
     bordercolor="#666666"
     borderopacity="1.0"
     inkscape:pageshadow="2"
     inkscape:pageopacity="0.0"
     inkscape:pagecheckerboard="0"
     showgrid="false"
     inkscape:zoom="16"
     inkscape:cx="1.6875"
     inkscape:cy="1.90625"
     inkscape:window-width="1862"
     inkscape:window-height="1053"
     inkscape:window-x="58"
     inkscape:window-y="0"
     inkscape:window-maximized="1"
     inkscape:current-layer="svg4"
     inkscape:showpageshadow="false"
     showborder="true" />
  <circle
     style="fill:#ffa600;fill-opacity:1;stroke:none;stroke-width:1;stroke-linejoin:round;stroke-miterlimit:10;stroke-dasharray:none;stroke-opacity:1"
     id="path8802"
     cx="10.5"
     cy="10.5"
     r="10" />
  <path
     id="path2"
     inkscape:label="path2"
     d="m 7.499999,4 c -4.6666646,0 -4.6666646,7 0,7 h 1.5 v 5 h -1 v 1 h 5.5 c 1.927072,0 3.5,-1.572928 3.5,-3.5 v -6 c 0,-1.9270724 -1.572928,-3.5 -3.5,-3.5 z m 0,1 h 1.5 v 5 h -1.5 c -3.3333319,0 -3.3333319,-5 0,-5 z m 2.5,0 h 1 v 11 h -1 z m 2,0 h 1.5 c 1.386633,0 2.5,1.1133672 2.5,2.5 v 6 c 0,1.386633 -1.113367,2.5 -2.5,2.5 h -1.5 z" />
</svg>
